<?xml version="1.0" standalone="no"?>
<!DOCTYPE svg PUBLIC "-//W3C//DTD SVG 20010904//EN"
 "http://www.w3.org/TR/2001/REC-SVG-20010904/DTD/svg10.dtd">
<svg version="1.0" xmlns="http://www.w3.org/2000/svg"
 width="766.000000pt" height="766.000000pt" viewBox="0 0 766.000000 766.000000"
 preserveAspectRatio="xMidYMid meet">
<metadata>
Created by potrace 1.14, written by Peter Selinger 2001-2017
</metadata>
<g transform="translate(0.000000,766.000000) scale(0.100000,-0.100000)"
fill="#000000" stroke="none">
<path d="M3510 7649 c-150 -15 -197 -21 -335 -44 -1274 -214 -2372 -1088
-2879 -2292 -137 -327 -223 -654 -272 -1038 -23 -173 -26 -677 -6 -850 82
-713 336 -1350 764 -1916 31 -42 63 -83 70 -90 7 -8 39 -46 71 -84 68 -82 214
-232 314 -325 597 -553 1345 -892 2188 -992 145 -17 686 -17 815 0 52 7 111
15 130 18 196 26 494 97 695 166 974 334 1781 1051 2221 1973 198 415 325 878
361 1315 21 247 7 700 -27 910 -18 110 -21 126 -36 200 -266 1325 -1249 2434
-2541 2865 -234 78 -560 151 -763 171 -36 3 -96 10 -135 14 -91 9 -538 9 -635
-1z"/>
</g>
</svg>
